<mxfile host="app.diagrams.net" modified="2023-03-21T14:57:54.465Z" agent="5.0 (Windows NT 10.0; Win64; x64) AppleWebKit/537.36 (KHTML, like Gecko) Chrome/111.0.0.0 Safari/537.36" etag="86eh7X5-FVbTg2LbAGRJ" version="20.8.13" type="github">
  <diagram id="C5RBs43oDa-KdzZeNtuy" name="Page-1">
    <mxGraphModel dx="778" dy="401" grid="0" gridSize="10" guides="1" tooltips="1" connect="1" arrows="1" fold="1" page="1" pageScale="1" pageWidth="827" pageHeight="1169" math="0" shadow="0">
      <root>
        <mxCell id="WIyWlLk6GJQsqaUBKTNV-0" />
        <mxCell id="WIyWlLk6GJQsqaUBKTNV-1" parent="WIyWlLk6GJQsqaUBKTNV-0" />
        <mxCell id="qug5ZGFB6QfTer1JU1MR-8" value="" style="edgeStyle=orthogonalEdgeStyle;rounded=0;orthogonalLoop=1;jettySize=auto;html=1;entryX=0.495;entryY=0.191;entryDx=0;entryDy=0;entryPerimeter=0;" edge="1" parent="WIyWlLk6GJQsqaUBKTNV-1" source="qug5ZGFB6QfTer1JU1MR-6" target="qug5ZGFB6QfTer1JU1MR-9">
          <mxGeometry relative="1" as="geometry">
            <mxPoint x="206" y="136" as="targetPoint" />
          </mxGeometry>
        </mxCell>
        <mxCell id="qug5ZGFB6QfTer1JU1MR-6" value="Start" style="strokeWidth=2;html=1;shape=mxgraph.flowchart.start_1;whiteSpace=wrap;" vertex="1" parent="WIyWlLk6GJQsqaUBKTNV-1">
          <mxGeometry x="176" y="44" width="60" height="28" as="geometry" />
        </mxCell>
        <mxCell id="qug5ZGFB6QfTer1JU1MR-12" style="edgeStyle=orthogonalEdgeStyle;rounded=0;orthogonalLoop=1;jettySize=auto;html=1;" edge="1" parent="WIyWlLk6GJQsqaUBKTNV-1" source="qug5ZGFB6QfTer1JU1MR-9" target="qug5ZGFB6QfTer1JU1MR-13">
          <mxGeometry relative="1" as="geometry">
            <mxPoint x="206" y="247.71432931082586" as="targetPoint" />
          </mxGeometry>
        </mxCell>
        <mxCell id="qug5ZGFB6QfTer1JU1MR-9" value="Student enters the Student ID and Password" style="html=1;strokeWidth=2;shape=manualInput;whiteSpace=wrap;rounded=1;size=26;arcSize=11;" vertex="1" parent="WIyWlLk6GJQsqaUBKTNV-1">
          <mxGeometry x="157.5" y="99" width="97" height="91" as="geometry" />
        </mxCell>
        <mxCell id="qug5ZGFB6QfTer1JU1MR-14" style="edgeStyle=orthogonalEdgeStyle;rounded=0;orthogonalLoop=1;jettySize=auto;html=1;" edge="1" parent="WIyWlLk6GJQsqaUBKTNV-1" source="qug5ZGFB6QfTer1JU1MR-13" target="qug5ZGFB6QfTer1JU1MR-15">
          <mxGeometry relative="1" as="geometry">
            <mxPoint x="80.25639773637818" y="273.71000000000004" as="targetPoint" />
          </mxGeometry>
        </mxCell>
        <mxCell id="qug5ZGFB6QfTer1JU1MR-16" style="edgeStyle=orthogonalEdgeStyle;rounded=0;orthogonalLoop=1;jettySize=auto;html=1;exitX=1;exitY=0.5;exitDx=0;exitDy=0;exitPerimeter=0;" edge="1" parent="WIyWlLk6GJQsqaUBKTNV-1" source="qug5ZGFB6QfTer1JU1MR-13" target="qug5ZGFB6QfTer1JU1MR-23">
          <mxGeometry relative="1" as="geometry">
            <mxPoint x="311.4516365297379" y="273.625" as="targetPoint" />
          </mxGeometry>
        </mxCell>
        <mxCell id="qug5ZGFB6QfTer1JU1MR-24" value="Yes" style="edgeLabel;html=1;align=center;verticalAlign=middle;resizable=0;points=[];" vertex="1" connectable="0" parent="qug5ZGFB6QfTer1JU1MR-16">
          <mxGeometry x="-0.2344" relative="1" as="geometry">
            <mxPoint as="offset" />
          </mxGeometry>
        </mxCell>
        <mxCell id="qug5ZGFB6QfTer1JU1MR-13" value="Verifies &lt;br&gt;the database &lt;br&gt;with the &lt;br&gt;credentials" style="strokeWidth=2;html=1;shape=mxgraph.flowchart.decision;whiteSpace=wrap;" vertex="1" parent="WIyWlLk6GJQsqaUBKTNV-1">
          <mxGeometry x="139.5" y="223.71" width="133" height="100" as="geometry" />
        </mxCell>
        <mxCell id="qug5ZGFB6QfTer1JU1MR-15" value="Student Database" style="strokeWidth=2;html=1;shape=mxgraph.flowchart.database;whiteSpace=wrap;" vertex="1" parent="WIyWlLk6GJQsqaUBKTNV-1">
          <mxGeometry x="33" y="230.64000000000001" width="60" height="86.14" as="geometry" />
        </mxCell>
        <mxCell id="qug5ZGFB6QfTer1JU1MR-23" value="Displays &lt;br&gt;the Student Canvas &lt;br&gt;main page &lt;br&gt;with different fields" style="shape=parallelogram;html=1;strokeWidth=2;perimeter=parallelogramPerimeter;whiteSpace=wrap;rounded=1;arcSize=12;size=0.23;" vertex="1" parent="WIyWlLk6GJQsqaUBKTNV-1">
          <mxGeometry x="335" y="231.64" width="167" height="84.15" as="geometry" />
        </mxCell>
      </root>
    </mxGraphModel>
  </diagram>
</mxfile>
